<svg xmlns="http://www.w3.org/2000/svg" xmlns:xlink="http://www.w3.org/1999/xlink" width="832" zoomAndPan="magnify" viewBox="0 0 624 623.999998" height="832" preserveAspectRatio="xMidYMid meet" version="1.0"><defs><clipPath id="3df082c522"><path d="M 0 0 L 623.25 0 L 623.25 623.25 L 0 623.25 Z M 0 0 " clip-rule="nonzero"/></clipPath></defs><path fill="#f9f2ff" d="M 479.691406 194.363281 L 281.976562 194.363281 C 275.351562 194.363281 269.984375 189.003906 269.984375 182.371094 C 269.984375 175.738281 275.351562 170.378906 281.976562 170.378906 L 479.691406 170.378906 C 486.316406 170.378906 491.6875 175.738281 491.6875 182.371094 C 491.6875 189.003906 486.316406 194.363281 479.691406 194.363281 " fill-opacity="1" fill-rule="nonzero"/><path fill="#f9f2ff" d="M 203.5 194.363281 L 143.929688 194.363281 C 137.304688 194.363281 131.9375 189.003906 131.9375 182.371094 C 131.9375 175.738281 137.304688 170.378906 143.929688 170.378906 L 203.5 170.378906 C 210.121094 170.378906 215.492188 175.738281 215.492188 182.371094 C 215.492188 189.003906 210.121094 194.363281 203.5 194.363281 " fill-opacity="1" fill-rule="nonzero"/><path fill="#f9f2ff" d="M 479.691406 323.753906 L 437.355469 323.753906 C 430.730469 323.753906 425.359375 318.382812 425.359375 311.761719 C 425.359375 305.136719 430.730469 299.765625 437.355469 299.765625 L 479.691406 299.765625 C 486.316406 299.765625 491.6875 305.136719 491.6875 311.761719 C 491.6875 318.382812 486.316406 323.753906 479.691406 323.753906 " fill-opacity="1" fill-rule="nonzero"/><path fill="#f9f2ff" d="M 358.867188 323.753906 L 143.929688 323.753906 C 137.304688 323.753906 131.9375 318.382812 131.9375 311.761719 C 131.9375 305.136719 137.304688 299.765625 143.929688 299.765625 L 358.867188 299.765625 C 365.492188 299.765625 370.859375 305.136719 370.859375 311.761719 C 370.859375 318.382812 365.492188 323.753906 358.867188 323.753906 " fill-opacity="1" fill-rule="nonzero"/><path fill="#f9f2ff" d="M 479.691406 453.234375 L 351.089844 453.234375 C 344.46875 453.234375 339.097656 447.875 339.097656 441.242188 C 339.097656 434.609375 344.46875 429.25 351.089844 429.25 L 479.691406 429.25 C 486.316406 429.25 491.6875 434.609375 491.6875 441.242188 C 491.6875 447.875 486.316406 453.234375 479.691406 453.234375 " fill-opacity="1" fill-rule="nonzero"/><path fill="#f9f2ff" d="M 272.523438 453.234375 L 143.929688 453.234375 C 137.304688 453.234375 131.9375 447.875 131.9375 441.242188 C 131.9375 434.609375 137.304688 429.25 143.929688 429.25 L 272.523438 429.25 C 279.144531 429.25 284.515625 434.609375 284.515625 441.242188 C 284.515625 447.875 279.144531 453.234375 272.523438 453.234375 " fill-opacity="1" fill-rule="nonzero"/><path fill="#f9f2ff" d="M 242.738281 155.117188 C 227.707031 155.117188 215.492188 167.34375 215.492188 182.371094 C 215.492188 197.398438 227.707031 209.625 242.738281 209.625 C 257.765625 209.625 269.984375 197.398438 269.984375 182.371094 C 269.984375 167.34375 257.765625 155.117188 242.738281 155.117188 Z M 242.738281 233.613281 C 214.488281 233.613281 191.507812 210.621094 191.507812 182.371094 C 191.507812 154.125 214.488281 131.132812 242.738281 131.132812 C 270.984375 131.132812 293.96875 154.125 293.96875 182.371094 C 293.96875 210.621094 270.984375 233.613281 242.738281 233.613281 " fill-opacity="1" fill-rule="nonzero"/><path fill="#f9f2ff" d="M 398.117188 284.515625 C 383.085938 284.515625 370.859375 296.730469 370.859375 311.761719 C 370.859375 326.835938 383.085938 339.097656 398.117188 339.097656 C 413.144531 339.097656 425.359375 326.835938 425.359375 311.761719 C 425.359375 296.730469 413.144531 284.515625 398.117188 284.515625 Z M 398.117188 363.085938 C 369.859375 363.085938 346.875 340.054688 346.875 311.761719 C 346.875 283.511719 369.859375 260.527344 398.117188 260.527344 C 426.363281 260.527344 449.347656 283.511719 449.347656 311.761719 C 449.347656 340.054688 426.363281 363.085938 398.117188 363.085938 " fill-opacity="1" fill-rule="nonzero"/><path fill="#f9f2ff" d="M 311.851562 413.902344 C 296.777344 413.902344 284.515625 426.167969 284.515625 441.242188 C 284.515625 456.269531 296.777344 468.496094 311.851562 468.496094 C 326.882812 468.496094 339.097656 456.269531 339.097656 441.242188 C 339.097656 426.167969 326.882812 413.902344 311.851562 413.902344 Z M 311.851562 492.480469 C 283.550781 492.480469 260.527344 469.488281 260.527344 441.242188 C 260.527344 412.945312 283.550781 389.917969 311.851562 389.917969 C 340.101562 389.917969 363.085938 412.945312 363.085938 441.242188 C 363.085938 469.488281 340.101562 492.480469 311.851562 492.480469 " fill-opacity="1" fill-rule="nonzero"/><g clip-path="url(#3df082c522)"><path fill="#f9f2ff" d="M 311.808594 23.984375 C 153.101562 23.984375 23.984375 153.101562 23.984375 311.808594 C 23.984375 470.511719 153.101562 599.628906 311.808594 599.628906 C 470.511719 599.628906 599.628906 470.511719 599.628906 311.808594 C 599.628906 153.101562 470.511719 23.984375 311.808594 23.984375 Z M 311.808594 623.613281 C 139.871094 623.613281 0 483.742188 0 311.808594 C 0 139.871094 139.871094 0 311.808594 0 C 483.742188 0 623.613281 139.871094 623.613281 311.808594 C 623.613281 483.742188 483.742188 623.613281 311.808594 623.613281 " fill-opacity="1" fill-rule="nonzero"/></g></svg>