<svg xmlns="http://www.w3.org/2000/svg" xmlns:xlink="http://www.w3.org/1999/xlink" width="833" zoomAndPan="magnify" viewBox="0 0 624.75 623.999998" height="832" preserveAspectRatio="xMidYMid meet" version="1.0"><defs><clipPath id="24476996a9"><path d="M 0.644531 0.125 L 623.644531 0.125 L 623.644531 623.125 L 0.644531 623.125 Z M 0.644531 0.125 " clip-rule="nonzero"/></clipPath></defs><g clip-path="url(#24476996a9)"><path fill="#f9f2ff" d="M 312.328125 0.125 C 140.472656 0.125 0.644531 139.953125 0.644531 311.808594 C 0.644531 403.894531 40.824219 486.765625 104.539062 543.867188 L 104.539062 544.085938 L 109.058594 547.984375 C 109.851562 548.671875 110.71875 549.242188 111.523438 549.917969 C 117.121094 554.644531 122.890625 559.179688 128.8125 563.515625 C 130.40625 564.683594 132.003906 565.8125 133.628906 566.945312 C 139.914062 571.359375 146.34375 575.566406 152.941406 579.515625 C 154.042969 580.179688 155.171875 580.800781 156.277344 581.4375 C 163.511719 585.644531 170.902344 589.605469 178.484375 593.230469 C 178.5625 593.269531 178.640625 593.292969 178.71875 593.332031 C 194.9375 601.058594 211.953125 607.386719 229.5625 612.242188 C 229.886719 612.332031 230.210938 612.4375 230.535156 612.515625 C 238.859375 614.789062 247.328125 616.695312 255.910156 618.269531 C 256.71875 618.410156 257.507812 618.554688 258.316406 618.695312 C 266.601562 620.152344 274.988281 621.308594 283.496094 622.097656 C 284.46875 622.191406 285.445312 622.242188 286.40625 622.320312 C 294.964844 623.035156 303.585938 623.488281 312.328125 623.488281 C 321.066406 623.488281 329.691406 623.035156 338.246094 622.320312 C 339.222656 622.242188 340.195312 622.191406 341.15625 622.097656 C 349.664062 621.320312 358.050781 620.152344 366.339844 618.695312 C 367.144531 618.554688 367.9375 618.410156 368.742188 618.269531 C 377.324219 616.695312 385.792969 614.789062 394.117188 612.515625 C 394.441406 612.425781 394.765625 612.332031 395.089844 612.242188 C 412.699219 607.386719 429.714844 601.058594 445.933594 593.332031 C 446.011719 593.292969 446.089844 593.269531 446.167969 593.230469 C 453.753906 589.605469 461.140625 585.632812 468.375 581.4375 C 469.492188 580.789062 470.609375 580.179688 471.710938 579.515625 C 478.324219 575.566406 484.75 571.347656 491.023438 566.945312 C 492.632812 565.816406 494.246094 564.683594 495.84375 563.515625 C 501.765625 559.179688 507.53125 554.644531 513.128906 549.917969 C 513.933594 549.242188 514.804688 548.671875 515.59375 547.984375 L 520.113281 544.085938 L 520.113281 543.867188 C 583.828125 486.75 624.007812 403.894531 624.007812 311.808594 C 624.007812 139.953125 484.179688 0.125 312.328125 0.125 Z M 312.328125 311.808594 C 255.042969 311.808594 208.433594 265.199219 208.433594 207.914062 C 208.433594 150.628906 255.042969 104.019531 312.328125 104.019531 C 369.609375 104.019531 416.21875 150.628906 416.21875 207.914062 C 416.21875 265.199219 369.609375 311.808594 312.328125 311.808594 Z M 351.285156 337.78125 C 430.050781 337.78125 494.140625 401.871094 494.140625 480.632812 L 494.140625 532.035156 C 493.59375 532.492188 493.023438 532.90625 492.480469 533.359375 C 487.347656 537.53125 482.089844 541.492188 476.710938 545.28125 C 475.519531 546.125 474.347656 546.996094 473.152344 547.816406 C 467.347656 551.777344 461.386719 555.488281 455.324219 559.007812 C 454.21875 559.660156 453.101562 560.296875 451.984375 560.929688 C 445.621094 564.503906 439.140625 567.851562 432.53125 570.917969 C 431.84375 571.242188 431.140625 571.554688 430.441406 571.867188 C 408.871094 581.671875 386.144531 588.773438 362.753906 592.984375 C 362.015625 593.113281 361.273438 593.253906 360.53125 593.386719 C 353.167969 594.644531 345.742188 595.617188 338.261719 596.308594 C 337.234375 596.398438 336.195312 596.464844 335.15625 596.542969 C 327.585938 597.125 319.976562 597.515625 312.328125 597.515625 C 304.675781 597.515625 297.066406 597.125 289.496094 596.515625 C 288.46875 596.4375 287.429688 596.371094 286.390625 596.28125 C 278.910156 595.59375 271.484375 594.632812 264.121094 593.359375 C 263.378906 593.230469 262.640625 593.101562 261.898438 592.957031 C 238.507812 588.75 215.78125 581.644531 194.210938 571.839844 C 193.511719 571.515625 192.808594 571.21875 192.121094 570.890625 C 185.511719 567.828125 179.03125 564.476562 172.667969 560.90625 C 171.550781 560.269531 170.445312 559.632812 169.328125 558.984375 C 163.265625 555.476562 157.304688 551.75 151.5 547.789062 C 150.289062 546.972656 149.121094 546.101562 147.941406 545.257812 C 142.5625 541.464844 137.304688 537.515625 132.175781 533.335938 C 131.628906 532.894531 131.058594 532.464844 130.511719 532.011719 L 130.511719 480.632812 C 130.511719 401.871094 194.601562 337.78125 273.367188 337.78125 Z M 520.113281 507.59375 L 520.113281 480.632812 C 520.113281 399.195312 462.140625 331.039062 385.3125 315.25 C 419.609375 291.859375 442.195312 252.46875 442.195312 207.914062 C 442.195312 136.304688 383.933594 78.046875 312.328125 78.046875 C 240.71875 78.046875 182.457031 136.304688 182.457031 207.914062 C 182.457031 252.46875 205.042969 291.859375 239.339844 315.25 C 162.511719 331.039062 104.539062 399.195312 104.539062 480.632812 L 104.539062 507.59375 C 56.28125 456.414062 26.617188 387.53125 26.617188 311.808594 C 26.617188 154.265625 154.785156 26.097656 312.328125 26.097656 C 469.867188 26.097656 598.035156 154.265625 598.035156 311.808594 C 598.035156 387.53125 568.375 456.414062 520.113281 507.59375 Z M 520.113281 507.59375 " fill-opacity="1" fill-rule="nonzero"/></g></svg>